<?xml version="1.0"?>
<svg version="1.1" xmlns="http://www.w3.org/2000/svg" width="125px" height="38px" style=""><path fill="#d2691e" d="M1.04248046875,10.64306640625q0-0.341796875,0.52978515625-0.487060546875t0.87158203125-0.145263671875q0.39306640625,0,0.863037109375,0.1025390625t0.572509765625,0.52978515625q0.49560546875,1.99951171875,0.760498046875,4.075927734375t0.401611328125,4.178466796875t0.22216796875,4.178466796875t0.18798828125,4.110107421875q0.46142578125-2.03369140625,0.948486328125-4.041748046875t1.273193359375-4.007568359375l0-1.3671875q0-0.87158203125,0.606689453125-1.256103515625t1.632080078125-0.384521484375q0.1025390625,0,0.469970703125,0.05126953125t0.367431640625,0.341796875q-0.068359375,0.205078125-0.162353515625,0.39306640625t-0.093994140625,0.41015625q0,2.59765625,0.615234375,5.323486328125t1.21337890625,5.306396484375q0.341796875-2.20458984375,0.7861328125-4.39208984375t0.9228515625-4.35791015625q0.63232421875-2.9052734375,0.965576171875-4.827880859375t0.63232421875-3.0419921875t0.6494140625-1.58935546875t0.982666015625-0.469970703125q0.39306640625-0.0341796875,0.73486328125,0.13671875t0.2734375,0.56396484375q-1.23046875,5.947265625-2.298583984375,11.9287109375t-2.178955078125,11.962890625q0,0.341796875,0.11962890625,0.80322265625t0.11962890625,0.8203125q0,0.205078125-0.18798828125,0.341796875t-0.452880859375,0.230712890625t-0.5810546875,0.128173828125t-0.555419921875,0.0341796875q-0.52978515625,0-1.11083984375-0.162353515625t-0.751953125-0.931396484375q-0.59814453125-2.666015625-1.102294921875-5.357666015625t-0.931396484375-5.426025390625q-0.13671875,0.63232421875-0.25634765625,1.28173828125t-0.22216796875,1.31591796875q-0.49560546875,2.9052734375-1.09375,5.810546875t-0.59814453125,5.87890625q0,0.73486328125-0.3076171875,0.948486328125t-1.04248046875,0.213623046875q-0.56396484375,0-0.95703125-0.18798828125q-0.3076171875-0.1708984375-0.5810546875-0.3076171875q-0.2392578125-0.13671875-0.435791015625-0.316162109375t-0.196533203125-0.350341796875q-0.2734375-3.70849609375-0.384521484375-7.36572265625t-0.247802734375-7.36572265625q-0.13671875-3.33251953125-0.401611328125-6.656494140625t-0.589599609375-6.605224609375z M21.801000976562,36.2607421875q0.068359375-3.57177734375,0.299072265625-7.12646484375t0.401611328125-7.12646484375q0.0341796875-1.3671875,0.0341796875-2.486572265625t0.111083984375-1.939697265625t0.41015625-1.256103515625t0.999755859375-0.435791015625q0.59814453125,0,0.90576171875,0.1708984375t0.469970703125,0.435791015625t0.196533203125,0.59814453125t0.0341796875,0.675048828125q0,0.49560546875,0.0341796875,0.982666015625t0.0341796875,0.982666015625q0,3.60595703125-0.196533203125,7.19482421875t-0.196533203125,7.22900390625q0,0.52978515625,0.01708984375,1.068115234375t0.01708984375,1.102294921875q0,0.205078125-0.18798828125,0.341796875t-0.469970703125,0.230712890625t-0.59814453125,0.128173828125t-0.521240234375,0.0341796875q-0.2392578125,0-0.538330078125-0.0341796875t-0.5810546875-0.145263671875t-0.478515625-0.264892578125t-0.196533203125-0.35888671875z M22.758032226562,13.0869140625q0-0.1708984375,0.05126953125-0.384521484375t0.11962890625-0.384521484375q0.0341796875-0.205078125,0.1025390625-0.70068359375t0.247802734375-0.965576171875t0.49560546875-0.83740234375t0.897216796875-0.367431640625l0.32470703125,0q0.2734375,0.068359375,0.555419921875,0.1708984375t0.281982421875,0.49560546875q0,0.1708984375-0.01708984375,0.32470703125t-0.05126953125,0.341796875q-0.13671875,1.00830078125-0.264892578125,1.58935546875t-0.299072265625,0.880126953125t-0.435791015625,0.384521484375t-0.675048828125,0.11962890625q-0.13671875,0-0.367431640625-0.01708984375t-0.4443359375-0.08544921875t-0.367431640625-0.213623046875t-0.15380859375-0.350341796875z M29.331982421875,12.62548828125q0-0.205078125,0.162353515625-0.32470703125t0.384521484375-0.179443359375t0.452880859375-0.076904296875t0.401611328125-0.05126953125q0.76904296875-0.1025390625,1.99951171875-0.25634765625t2.520751953125-0.299072265625t2.503662109375-0.247802734375t1.9482421875-0.1025390625q0.341796875,0,0.8544921875,0.11962890625t0.546875,0.5810546875l-0.18798828125,0.32470703125q-1.162109375,2.6318359375-2.384033203125,5.408935546875t-2.30712890625,5.648193359375t-1.922607421875,5.79345703125t-1.14501953125,5.86181640625q0.2734375,0.0341796875,1.00830078125,0.068359375t1.666259765625,0.08544921875t1.922607421875,0.15380859375t1.820068359375,0.230712890625t1.35009765625,0.299072265625t0.521240234375,0.41015625q0,0.2734375-0.18798828125,0.435791015625t-0.469970703125,0.247802734375t-0.5810546875,0.128173828125t-0.504150390625,0.042724609375q-0.341796875,0-1.256103515625-0.01708984375t-2.05078125-0.076904296875t-2.366943359375-0.162353515625t-2.247314453125-0.25634765625t-1.6748046875-0.367431640625t-0.657958984375-0.487060546875q0-0.93994140625,0.418701171875-2.78564453125t1.102294921875-4.1357421875t1.52099609375-4.776611328125t1.69189453125-4.708251953125t1.62353515625-3.956298828125t1.298828125-2.537841796875q-1.708984375,0.1025390625-3.392333984375,0.299072265625t-3.392333984375,0.196533203125q-0.2392578125,0-0.615234375-0.068359375t-0.3759765625-0.46142578125z M44.946459960937,12.62548828125q0-0.205078125,0.162353515625-0.32470703125t0.384521484375-0.179443359375t0.452880859375-0.076904296875t0.401611328125-0.05126953125q0.76904296875-0.1025390625,1.99951171875-0.25634765625t2.520751953125-0.299072265625t2.503662109375-0.247802734375t1.9482421875-0.1025390625q0.341796875,0,0.8544921875,0.11962890625t0.546875,0.5810546875l-0.18798828125,0.32470703125q-1.162109375,2.6318359375-2.384033203125,5.408935546875t-2.30712890625,5.648193359375t-1.922607421875,5.79345703125t-1.14501953125,5.86181640625q0.2734375,0.0341796875,1.00830078125,0.068359375t1.666259765625,0.08544921875t1.922607421875,0.15380859375t1.820068359375,0.230712890625t1.35009765625,0.299072265625t0.521240234375,0.41015625q0,0.2734375-0.18798828125,0.435791015625t-0.469970703125,0.247802734375t-0.5810546875,0.128173828125t-0.504150390625,0.042724609375q-0.341796875,0-1.256103515625-0.01708984375t-2.05078125-0.076904296875t-2.366943359375-0.162353515625t-2.247314453125-0.25634765625t-1.6748046875-0.367431640625t-0.657958984375-0.487060546875q0-0.93994140625,0.418701171875-2.78564453125t1.102294921875-4.1357421875t1.52099609375-4.776611328125t1.69189453125-4.708251953125t1.62353515625-3.956298828125t1.298828125-2.537841796875q-1.708984375,0.1025390625-3.392333984375,0.299072265625t-3.392333984375,0.196533203125q-0.2392578125,0-0.615234375-0.068359375t-0.3759765625-0.46142578125z M59.51845703125,12.18115234375q0-0.2392578125,0.333251953125-0.367431640625t0.435791015625-0.128173828125l0.63232421875-0.1025390625q0.63232421875-0.1025390625,1.28173828125-0.179443359375t1.2646484375-0.145263671875q2.17041015625-0.2734375,4.3408203125-0.538330078125t4.375-0.264892578125q0.1708984375,0,0.469970703125,0.01708984375t0.59814453125,0.093994140625t0.5126953125,0.213623046875t0.213623046875,0.3759765625q0,0.1708984375-0.162353515625,0.299072265625t-0.384521484375,0.196533203125t-0.452880859375,0.08544921875t-0.367431640625,0.01708984375l-0.299072265625,0t-0.299072265625-0.068359375q-0.90576171875,0-1.785888671875,0.08544921875t-1.785888671875,0.15380859375q0.2392578125,0.2734375,0.25634765625,0.76904296875t0.0341796875,0.8544921875q0,6.0498046875,0.08544921875,12.03125t0.15380859375,12.08251953125l0,0.0341796875q-0.56396484375,0.49560546875-0.965576171875,0.63232421875t-0.811767578125,0.13671875q-0.39306640625,0-0.794677734375-0.145263671875t-0.965576171875-0.623779296875l0-0.0341796875l0.13671875-13.41552734375q0-1.3330078125-0.0341796875-2.939453125t-0.0341796875-3.255615234375t0.05126953125-3.187255859375t0.2734375-2.68310546875q-1.00830078125,0.1025390625-2.13623046875,0.3076171875q-0.97412109375,0.1708984375-1.86279296875,0.1708984375l-0.3076171875,0q-0.068359375,0-0.401611328125,0.01708984375t-0.68359375-0.01708984375t-0.63232421875-0.13671875t-0.281982421875-0.341796875z M76.414672851562,34.654296875q0.0341796875-0.7177734375,0.0341796875-1.4013671875q0-2.47802734375,0.179443359375-4.93896484375t0.247802734375-4.93896484375q0.1025390625-2.8369140625,0.18798828125-5.62255859375t0.341796875-5.60546875q0.068359375-0.70068359375,0.401611328125-0.914306640625t0.999755859375-0.213623046875q0.3076171875,0,0.8203125,0.11962890625t0.5126953125,0.5810546875q0.2392578125,0.0341796875,0.478515625,0.0341796875q0.35888671875,0,0.73486328125-0.068359375q0.615234375-0.1025390625,1.256103515625-0.230712890625t1.273193359375-0.247802734375t1.21337890625-0.11962890625q0.13671875,0,0.384521484375,0.01708984375t0.49560546875,0.1025390625t0.418701171875,0.213623046875t0.1708984375,0.333251953125t-0.401611328125,0.367431640625t-1.051025390625,0.281982421875t-1.4013671875,0.205078125t-1.4697265625,0.145263671875t-1.273193359375,0.093994140625t-0.794677734375,0.0341796875l-0.0341796875,6.42578125l0.0341796875,3.19580078125q0.52978515625,0,1.58935546875-0.0341796875q0.42724609375-0.01708984375,0.8544921875-0.01708984375q0.6494140625,0,1.3330078125,0.0341796875q1.1279296875,0.05126953125,2.03369140625,0.205078125t1.14501953125,0.546875q0,0.2392578125-0.247802734375,0.384521484375t-0.555419921875,0.213623046875t-0.623779296875,0.08544921875t-0.452880859375,0.01708984375q-1.2646484375,0-2.54638671875-0.05126953125t-2.529296875-0.205078125q0,2.10205078125-0.111083984375,4.169921875t-0.111083984375,4.169921875q0,0.90576171875,0.01708984375,1.785888671875t0.205078125,1.751708984375q0.46142578125-0.0341796875,0.999755859375-0.08544921875t1.09375-0.128173828125t1.068115234375-0.128173828125t0.888671875-0.05126953125q0.205078125,0,0.555419921875,0.05126953125t0.7177734375,0.1708984375t0.63232421875,0.299072265625t0.264892578125,0.418701171875q0,0.2734375-0.504150390625,0.487060546875t-1.290283203125,0.341796875t-1.717529296875,0.179443359375t-1.802978515625,0.068359375t-1.572265625,0.01708984375l-0.9912109375,0q-0.93994140625,0-1.375732421875-0.350341796875t-0.606689453125-0.914306640625q-0.13671875-0.46142578125-0.11962890625-1.04248046875l0-0.2392578125z M90.627783203125,31.04833984375q0-3.70849609375,0.333251953125-7.425537109375t1.392822265625-7.322998046875q0.3076171875-1.07666015625,0.80322265625-2.127685546875t1.21337890625-1.871337890625t1.708984375-1.3330078125t2.3583984375-0.5126953125l0.35888671875,0.0341796875q1.4697265625,0.205078125,2.17041015625,1.187744140625t0.70068359375,2.452392578125q0,0.39306640625-0.093994140625,0.982666015625t-0.299072265625,1.136474609375t-0.555419921875,0.931396484375t-0.880126953125,0.384521484375q-0.2392578125-0.0341796875-0.435791015625-0.08544921875t-0.367431640625-0.22216796875q0.2734375-0.59814453125,0.487060546875-1.24755859375t0.213623046875-1.48681640625q0-0.3076171875-0.05126953125-0.7861328125t-0.196533203125-0.948486328125t-0.384521484375-0.8203125t-0.66650390625-0.350341796875q-1.07666015625,0-1.8115234375,1.204833984375t-1.23046875,3.076171875t-0.73486328125,4.1357421875t-0.367431640625,4.375t-0.145263671875,3.81103515625t-0.01708984375,2.401123046875q0,0.8203125-0.01708984375,1.8115234375l0,0.22216796875q0.01708984375,0.87158203125,0.11962890625,1.65771484375q0.13671875,0.888671875,0.52978515625,1.5380859375t1.23046875,0.751953125q0.25634765625,0.0341796875,0.49560546875,0.0341796875q0.9912109375,0,1.79443359375-0.56396484375q0.9912109375-0.70068359375,1.76025390625-1.820068359375t1.3671875-2.4609375t1.102294921875-2.537841796875t0.982666015625-1.982421875t0.9912109375-0.7861328125q0.1708984375,0,0.5126953125,0.068359375t0.341796875,0.32470703125q0,0.068359375-0.0341796875,0.18798828125t-0.08544921875,0.18798828125q-0.46142578125,1.8115234375-1.170654296875,3.759765625t-1.8115234375,3.546142578125t-2.7001953125,2.606201171875t-3.836669921875,1.00830078125q-1.6064453125,0-2.606201171875-0.606689453125t-1.5380859375-1.62353515625t-0.73486328125-2.298583984375t-0.196533203125-2.59765625z M108.77155761719,15.949462890625q-0.0341796875-0.452880859375,0.076904296875-0.8544921875t0.418701171875-0.66650390625t1.04248046875-0.264892578125q0.1708984375,0,0.418701171875,0.0341796875t0.49560546875,0.111083984375t0.401611328125,0.213623046875t0.15380859375,0.3759765625q0,0.63232421875,0.042724609375,1.666259765625t0.111083984375,2.1533203125t0.128173828125,2.1875t0.111083984375,1.734619140625q1.3330078125-0.068359375,2.68310546875-0.068359375t2.666015625-0.068359375l2.3583984375-0.068359375l0-1.69189453125q0-2.8369140625-0.111083984375-5.682373046875t-0.384521484375-5.682373046875q0-0.205078125,0.1708984375-0.333251953125t0.401611328125-0.196533203125t0.478515625-0.08544921875t0.384521484375-0.01708984375q0.39306640625,0,0.845947265625,0.11962890625t0.521240234375,0.5126953125l0.1025390625,0.73486328125q0.42724609375,3.076171875,0.5810546875,6.083984375t0.22216796875,6.015625q0.205078125,0.0341796875,0.435791015625,0.111083984375t0.469970703125,0.145263671875q0.1708984375,0.068359375,0.487060546875,0.205078125t0.316162109375,0.42724609375q0,0.2734375-0.2392578125,0.42724609375t-0.538330078125,0.230712890625t-0.5810546875,0.093994140625t-0.350341796875,0.01708984375q0.0341796875,1.2646484375,0.0341796875,2.520751953125l0,2.520751953125l0,5.52001953125l0,3.076171875q0,0.205078125-0.196533203125,0.367431640625t-0.469970703125,0.264892578125t-0.572509765625,0.13671875t-0.538330078125,0.0341796875t-0.56396484375-0.0341796875t-0.5810546875-0.13671875t-0.452880859375-0.25634765625t-0.196533203125-0.3759765625l0-0.73486328125q0.068359375-3.2470703125,0.15380859375-6.434326171875t0.1708984375-6.400146484375q-1.86279296875,0.068359375-3.785400390625,0.08544921875t-3.819580078125,0.08544921875q0.205078125,2.40966796875,0.469970703125,4.810791015625t0.555419921875,4.810791015625q0,0.205078125-0.196533203125,0.367431640625t-0.46142578125,0.264892578125t-0.56396484375,0.13671875t-0.538330078125,0.0341796875q-0.49560546875,0-1.085205078125-0.1708984375t-0.657958984375-0.63232421875q-0.205078125-1.8115234375-0.384521484375-3.9990234375t-0.316162109375-4.468994140625t-0.213623046875-4.468994140625t-0.076904296875-3.96484375q0-0.42724609375-0.0341796875-0.880126953125z"/><path fill="#" d=""/></svg>
